<svg width="390" height="844" viewBox="0 0 390 844" fill="none" xmlns="http://www.w3.org/2000/svg">
<g clip-path="url(#clip0_79_1283)">
<path d="M390 0H0V844H390V0Z" fill="black"/>
<path d="M390 400.9C362.7 377.268 335.4 353.636 304.547 345.102C273.607 336.568 239.113 343.133 213.633 330.567C188.153 317.907 171.687 286.116 146.727 263.234C121.68 240.352 88.0533 226.286 69.16 200.497C50.18 174.614 45.9333 136.822 40.04 101.468C34.2333 66.1133 26.8667 33.0098 19.5 0H390V400.9Z" fill="#540000"/>
<path d="M390 320.72C368.16 301.777 346.32 282.928 321.62 276.082C296.92 269.236 269.273 274.488 248.907 264.453C228.54 254.325 215.367 228.912 195.347 210.625C175.327 192.244 148.46 181.085 133.293 160.36C118.127 139.635 114.747 109.439 110.067 81.1178C105.387 52.8907 99.4933 26.4453 93.6 0H390V320.72Z" fill="#6F0000"/>
<path d="M390 240.54C373.62 226.38 357.24 212.219 338.693 207.061C320.147 201.997 299.433 205.936 284.18 198.34C268.927 190.744 259.047 171.707 244.053 157.922C228.973 144.23 208.867 135.79 197.513 120.317C186.073 104.75 183.56 82.1493 180.007 60.8618C176.54 39.668 172.12 19.7871 167.7 0H390V240.54Z" fill="#8D0013"/>
<path d="M390 160.36C379.08 150.888 368.16 141.417 355.853 138.041C343.46 134.665 329.68 137.291 319.453 132.227C309.227 127.163 302.727 114.503 292.673 105.312C282.707 96.1222 269.273 90.4956 261.647 80.18C254.107 69.8644 252.373 54.7662 250.033 40.6058C247.693 26.4453 244.747 13.2227 241.8 0H390V160.36Z" fill="#AC0027"/>
<path d="M390 80.18C384.54 75.4911 379.08 70.7084 372.927 69.0204C366.687 67.3324 359.84 68.6453 354.727 66.1133C349.613 63.5813 346.32 57.2044 341.38 52.6093C336.353 48.108 329.593 45.2947 325.867 40.1369C322.053 34.8853 321.187 27.3831 319.973 20.256C318.847 13.2227 317.373 6.56444 315.9 0H390V80.18Z" fill="#BB0731"/>
<path d="M0 443.1C28.5133 460.918 57.0267 478.829 88.5733 486.238C120.207 493.552 154.787 490.552 179.4 507.807C204.013 525.062 218.487 562.667 232.267 592.676C246.047 622.684 259.133 645.191 282.967 667.229C306.8 689.267 341.467 710.836 357.847 740.282C374.227 769.634 372.407 806.77 370.5 844H0V443.1Z" fill="#540000"/>
<path d="M0 523.28C22.7933 537.534 45.5867 551.882 70.8933 557.79C96.1133 563.698 123.847 561.166 143.52 575.045C163.193 588.831 174.807 618.933 185.813 642.94C196.82 666.948 207.307 684.953 226.373 702.583C245.44 720.213 273.173 737.468 286.26 761.007C299.433 784.545 297.873 814.272 296.4 844H0V523.28Z" fill="#6F0000"/>
<path d="M0 603.46C17.0733 614.151 34.2333 624.841 53.1267 629.343C72.1067 633.75 92.9067 631.875 107.64 642.284C122.373 652.6 131.127 675.2 139.36 693.205C147.593 711.211 155.48 724.715 169.78 737.937C184.08 751.16 204.88 764.101 214.76 781.732C224.553 799.362 223.427 821.681 222.3 844H0V603.46Z" fill="#8D0013"/>
<path d="M0 683.64C11.44 690.767 22.7933 697.894 35.4467 700.895C48.1 703.802 61.9667 702.583 71.76 709.523C81.5533 716.368 87.36 731.467 92.9067 743.47C98.4533 755.474 103.653 764.476 113.187 773.292C122.72 782.107 136.587 790.734 143.173 802.456C149.673 814.272 148.98 829.089 148.2 844H0V683.64Z" fill="#AC0027"/>
<path d="M0 763.82C5.72 767.384 11.44 770.947 17.68 772.447C24.0067 773.948 30.94 773.292 35.88 776.761C40.82 780.231 43.68 787.733 46.4533 793.735C49.2267 799.737 51.8267 804.238 56.5933 808.646C61.36 813.053 68.2933 817.367 71.5867 823.275C74.88 829.089 74.4467 836.591 74.1 844H0V763.82Z" fill="#BB0731"/>
</g>
<defs>
<clipPath id="clip0_79_1283">
<rect width="390" height="844" fill="white"/>
</clipPath>
</defs>
</svg>
